<?xml version="1.0" encoding="UTF-8"?>
<svg version="1.1" xmlns="http://www.w3.org/2000/svg" width="123" height="109">
<path d="M0 0 C4.46662086 3.01412949 8.43847661 6.84011584 9.765625 12.15625 C9.9203125 13.26806641 9.9203125 13.26806641 10.078125 14.40234375 C11.6559375 13.65984375 11.6559375 13.65984375 13.265625 12.90234375 C21.22168746 9.98371766 29.4395767 10.43194776 37.328125 13.33984375 C46.29457941 17.55656471 51.97889992 24.10084124 56.203125 32.9453125 C58.33078781 38.91986566 58.26094748 44.95164049 58.265625 51.21484375 C58.27787109 52.06626953 58.29011719 52.91769531 58.30273438 53.79492188 C58.32755935 64.65998598 56.12191445 74.22630508 48.29296875 82.2265625 C41.64171353 87.64863297 32.93111974 91.26094703 24.265625 90.78125 C16.73844976 89.47743572 10.5806066 85.56767367 6.078125 79.40234375 C5.03724929 77.01390574 4.55287946 74.98711804 4.078125 72.40234375 C3.54445312 72.61890625 3.01078125 72.83546875 2.4609375 73.05859375 C-6.97768249 76.5858289 -15.61702783 76.3561606 -24.921875 72.40234375 C-35.85000867 66.49040258 -44.02968096 57.78467655 -47.73828125 45.75390625 C-50.16786376 34.71034941 -49.35208372 23.3581743 -43.234375 13.58984375 C-33.59669245 0.51858879 -15.62255105 -7.89556987 0 0 Z " fill="#166578" transform="translate(56.921875,10.59765625)"/>
<path d="M0 0 C5.50678412 2.50855064 10.76094853 6.17902629 13 12 C13.58222597 16.3430301 13.55821426 20.62422779 13.5 25 C13.51546875 26.16273437 13.5309375 27.32546875 13.546875 28.5234375 C13.5105144 36.4682279 12.76511885 40.21105128 7.1484375 45.86328125 C6.56320313 46.34152344 5.97796875 46.81976563 5.375 47.3125 C4.78460938 47.80363281 4.19421875 48.29476562 3.5859375 48.80078125 C0.50607491 51.12964286 -1.68799633 51.16242103 -5.5 51.1875 C-6.4796875 51.20167969 -7.459375 51.21585938 -8.46875 51.23046875 C-11 51 -11 51 -13 49 C-13.27450545 45.65103346 -13.08628804 42.36523337 -13 39 C-9.37 38.34 -5.74 37.68 -2 37 C-2 36.01 -2 35.02 -2 34 C-2.72445312 34.05800781 -3.44890625 34.11601563 -4.1953125 34.17578125 C-13.08393789 34.59058377 -13.08393789 34.59058377 -16.5 31.9375 C-21.0604037 26.57902565 -22.70293534 21.45612001 -22.48046875 14.49609375 C-21.38209009 8.78988267 -17.39814227 5.27103843 -13.25 1.5 C-8.68155967 -0.60851092 -4.94060491 -0.9806915 0 0 Z " fill="#BEDAE1" transform="translate(86,34)"/>
<path d="M0 0 C5.7682795 5.14468172 8.03226216 10.43246443 9 18 C9.16256805 21.27195305 9.18505373 24.53694304 9.1875 27.8125 C9.19974609 28.66392578 9.21199219 29.51535156 9.22460938 30.39257812 C9.24943435 41.25764223 7.04378945 50.82396133 -0.78515625 58.82421875 C-7.44614589 64.25422468 -16.12858343 67.82657031 -24.80078125 67.390625 C-30.79618792 66.32572151 -36.10170114 63.74575514 -40 59 C-39.08411926 55.91931025 -38.42155642 54.31730053 -35.8203125 52.359375 C-32.53787861 50.77726005 -30.18981961 50.63513184 -26.5625 50.5625 C-20.34350502 50.19791405 -16.90888602 49.11609434 -12.57421875 44.47265625 C-8.6611158 39.96432073 -7.86916172 37.56484314 -7.68359375 31.6796875 C-7.62075195 29.79443359 -7.62075195 29.79443359 -7.55664062 27.87109375 C-7.51732422 26.55238281 -7.47800781 25.23367187 -7.4375 23.875 C-7.39430488 22.53514249 -7.35069027 21.19529844 -7.30664062 19.85546875 C-7.20029019 16.57042185 -7.09826192 13.28529719 -7 10 C-4 10 -4 10 -2 11 C-1.90021879 7.50765756 -2.22157062 4.40562852 -3 1 C-2.01 0.67 -1.02 0.34 0 0 Z " fill="#072228" transform="translate(106,34)"/>
<path d="M0 0 C0.02696365 1.79158489 0.04637917 3.58328473 0.0625 5.375 C0.07410156 6.37273438 0.08570312 7.37046875 0.09765625 8.3984375 C0 11 0 11 -1 13 C-3.50269558 13.60549087 -6.00903559 13.95762488 -8.5546875 14.33984375 C-11.28590894 15.07718628 -12.29604623 15.77628675 -14 18 C-15.20190901 21.60572704 -15.32670315 24.2102435 -15 28 C-13.59121904 30.9901643 -13.59121904 30.9901643 -11 33 C-7.35817665 33.89055736 -7.35817665 33.89055736 -4 34 C-4 32.68 -4 31.36 -4 30 C-4.99 30 -5.98 30 -7 30 C-7 27.03 -7 24.06 -7 21 C2.7003861 20.23552124 2.7003861 20.23552124 7.1875 22.875 C9.76483107 27.31867426 9.72598807 30.98261578 9 36 C7.20646165 41.28097404 4.39000798 43.79895251 0 47 C-5.86672532 48.95557511 -12.59505704 49.00552037 -18.3125 46.5 C-24.41627195 42.94780485 -28.35245921 36.74699884 -30.53125 30.1328125 C-32.07324565 23.11673231 -31.48001314 16.31655216 -28 10 C-22.15569511 1.09699349 -10.58837369 -5.29418685 0 0 Z " fill="#AED1D9" transform="translate(52,22)"/>
<path d="M0 0 C0 3 0 3 -1.9375 5.0625 C-2.9584375 6.0215625 -2.9584375 6.0215625 -4 7 C-5.93588407 10.87176814 -5.47609565 15.64203958 -5.71875 19.91015625 C-6 23 -6 23 -7 24 C-9.67058851 24.14115161 -12.32432238 24.04247107 -15 24 C-15 23.67 -15 23.34 -15 23 C-12.69 23 -10.38 23 -8 23 C-7.67 18.71 -7.34 14.42 -7 10 C-19.99613515 9.33607063 -19.99613515 9.33607063 -30.7421875 15.578125 C-36.16472519 21.33794972 -37.48605384 27.60883416 -37.3203125 35.375 C-36.53223048 41.83342829 -33.75801346 48.50632062 -29 53 C-26.40499985 54.51208663 -23.75350608 55.80369517 -21 57 C-21.99 57.495 -21.99 57.495 -23 58 C-23 58.66 -23 59.32 -23 60 C-23.99 60 -24.98 60 -26 60 C-24.35 60.99 -22.7 61.98 -21 63 C-23.22189824 65.22189824 -25.08482708 65.92598892 -28 67 C-28.66 66.34 -29.32 65.68 -30 65 C-30 64.01 -30 63.02 -30 62 C-34.14468367 60.41951276 -34.14468367 60.41951276 -38.51171875 60.1875 C-41 60 -41 60 -42.6953125 58.3125 C-49.67411472 47.02438274 -52.72463171 36.25461856 -49.875 23.0625 C-47.34760684 13.72877829 -42.02110936 6.43684349 -34 1 C-22.53332503 -4.68153022 -11.53718424 -6.38105992 0 0 Z " fill="#18687C" transform="translate(59,12)"/>
<path d="M0 0 C1.68524823 2.08723404 1.92028911 3.95922248 2.27734375 6.58203125 C1.63667969 6.22109375 0.99601562 5.86015625 0.3359375 5.48828125 C-4.81291111 2.72585875 -8.73059581 0.6421002 -14.72265625 1.58203125 C-17.43392009 3.00824809 -17.43392009 3.00824809 -19.72265625 4.58203125 C-20.71265625 4.58203125 -21.70265625 4.58203125 -22.72265625 4.58203125 C-24.01165703 8.44903359 -24.353015 12.55934711 -23.72265625 16.58203125 C-21.8890729 18.91657786 -21.8890729 18.91657786 -19.72265625 20.58203125 C-19.39265625 21.57203125 -19.06265625 22.56203125 -18.72265625 23.58203125 C-16.74265625 23.91203125 -14.76265625 24.24203125 -12.72265625 24.58203125 C-12.72265625 23.26203125 -12.72265625 21.94203125 -12.72265625 20.58203125 C-13.38265625 20.58203125 -14.04265625 20.58203125 -14.72265625 20.58203125 C-14.72265625 19.92203125 -14.72265625 19.26203125 -14.72265625 18.58203125 C-16.04265625 18.25203125 -17.36265625 17.92203125 -18.72265625 17.58203125 C-18.8308085 15.8125403 -18.90831708 14.04115638 -18.97265625 12.26953125 C-19.0190625 11.28339844 -19.06546875 10.29726563 -19.11328125 9.28125 C-18.72265625 6.58203125 -18.72265625 6.58203125 -17.03125 4.7421875 C-14.31911966 3.37923875 -12.55541387 3.2428065 -9.53515625 3.33203125 C-8.21451172 3.35523438 -8.21451172 3.35523438 -6.8671875 3.37890625 C-4.72265625 3.58203125 -4.72265625 3.58203125 -3.72265625 4.58203125 C-3.38425635 8.99065368 -3.39752216 13.41209837 -3.34765625 17.83203125 C-3.31027344 19.07339844 -3.27289063 20.31476562 -3.234375 21.59375 C-3.13521296 31.82947576 -3.13521296 31.82947576 -6.10546875 34.8671875 C-8.2754118 36.288986 -10.37521015 37.49214556 -12.72265625 38.58203125 C-13.05265625 39.24203125 -13.38265625 39.90203125 -13.72265625 40.58203125 C-6.17556105 37.49411251 -6.17556105 37.49411251 0.27734375 32.58203125 C1.25051185 29.66252695 1.47029835 27.52758174 1.59375 24.4765625 C1.63564453 23.49365234 1.67753906 22.51074219 1.72070312 21.49804688 C1.76001953 20.47388672 1.79933594 19.44972656 1.83984375 18.39453125 C1.88302734 17.35876953 1.92621094 16.32300781 1.97070312 15.25585938 C2.07678741 12.69804935 2.17884521 10.1401428 2.27734375 7.58203125 C3.76234375 8.07703125 3.76234375 8.07703125 5.27734375 8.58203125 C5.39444018 12.10258039 5.46489065 15.62262237 5.52734375 19.14453125 C5.57761719 20.63049805 5.57761719 20.63049805 5.62890625 22.14648438 C5.72932524 29.70301355 4.49595802 33.65077975 -0.328125 39.54296875 C-4.78434355 43.52605792 -8.7215292 44.84952335 -14.72265625 44.58203125 C-15.71265625 44.25203125 -16.70265625 43.92203125 -17.72265625 43.58203125 C-17.72265625 40.61203125 -17.72265625 37.64203125 -17.72265625 34.58203125 C-16.27890625 34.31390625 -14.83515625 34.04578125 -13.34765625 33.76953125 C-10.90770754 33.37641048 -10.90770754 33.37641048 -8.72265625 32.58203125 C-6.60484961 29.40532129 -6.47373479 28.61955807 -6.4921875 24.984375 C-6.49508789 23.65889648 -6.49508789 23.65889648 -6.49804688 22.30664062 C-6.51029297 21.38689453 -6.52253906 20.46714844 -6.53515625 19.51953125 C-6.53580078 18.59591797 -6.53644531 17.67230469 -6.53710938 16.72070312 C-6.39562614 11.9942426 -6.39562614 11.9942426 -7.72265625 7.58203125 C-10.055604 7.53961402 -12.38968192 7.54110188 -14.72265625 7.58203125 C-16.22008744 9.07946244 -16.05468318 10.57027364 -16.28515625 12.64453125 C-16.42953125 13.94390625 -16.57390625 15.24328125 -16.72265625 16.58203125 C-14.41265625 16.91203125 -12.10265625 17.24203125 -9.72265625 17.58203125 C-9.72265625 20.55203125 -9.72265625 23.52203125 -9.72265625 26.58203125 C-11.8041956 26.71739147 -13.88826831 26.8141859 -15.97265625 26.89453125 C-17.1328125 26.95253906 -18.29296875 27.01054688 -19.48828125 27.0703125 C-22.72265625 26.58203125 -22.72265625 26.58203125 -25.06640625 24.19921875 C-28.67449755 18.49775372 -29.87526703 13.3038941 -28.72265625 6.58203125 C-26.57839549 1.98064606 -24.08578064 -0.78883442 -19.47265625 -2.91796875 C-6.30561589 -4.67357413 -6.30561589 -4.67357413 0 0 Z " fill="#E9F2F5" transform="translate(92.72265625,39.41796875)"/>
<path d="M0 0 C2.86969255 1.76596464 3.08402281 3.32488819 3.9375 6.625 C4.34335295 11.7406349 3.26250554 15.98885189 0 20 C-7.2310015 24.45076495 -15.34923871 25.05515759 -23.53125 23.52734375 C-31.33102418 21.51721676 -38.83158687 17.2919812 -44 11 C-44 10.34 -44 9.68 -44 9 C-41.3125 8.6875 -41.3125 8.6875 -38 9 C-35.42714276 11.172635 -33.51003081 12.97993838 -32 16 C-30.02 15.34 -28.04 14.68 -26 14 C-28.03268602 11.83656989 -28.03268602 11.83656989 -31 10 C-30.34 9.67 -29.68 9.34 -29 9 C-28.34 9.33 -27.68 9.66 -27 10 C-27 9.34 -27 8.68 -27 8 C-26.14277344 7.97421875 -25.28554688 7.9484375 -24.40234375 7.921875 C-15.98501248 7.50432982 -11.3965701 6.41955452 -4.75 1.25 C-3 0 -3 0 0 0 Z " fill="#061E25" transform="translate(63,62)"/>
<path d="M0 0 C0.33 1.32 0.66 2.64 1 4 C0.40832031 4.25394531 -0.18335937 4.50789063 -0.79296875 4.76953125 C-8.50267346 7.56437698 -8.50267346 7.56437698 -14 13 C-14.14901491 15.10053716 -14.22138453 17.20687825 -14.25 19.3125 C-14.27578125 20.44300781 -14.3015625 21.57351562 -14.328125 22.73828125 C-13.96983683 26.29983623 -12.97097711 28.06946825 -11 31 C-11 31.66 -11 32.32 -11 33 C-5.72 33 -0.44 33 5 33 C5.33 30.36 5.66 27.72 6 25 C4.68 24.34 3.36 23.68 2 23 C2 22.01 2 21.02 2 20 C4.33294775 19.95758277 6.66702567 19.95907063 9 20 C10 21 10 21 10.3125 24.5 C10.28492284 29.57419703 8.29972645 33.56481327 6 38 C7.32 38 8.64 38 10 38 C12.27649812 33.5987703 13.12094458 30.28028936 13.0625 25.3125 C13.05347656 24.31863281 13.04445312 23.32476562 13.03515625 22.30078125 C13.02355469 21.54152344 13.01195312 20.78226563 13 20 C15.48002593 22.48002593 15.29694693 23.32832513 15.3125 26.75 C15.18577521 31.93080752 14.34299911 35.64419762 10.5703125 39.4375 C5.47392322 43.90001001 1.3871544 44.36437493 -5.1484375 44.26953125 C-10.43810996 43.76954851 -14.15055616 42.01008596 -17.75390625 38.09375 C-20.21235717 34.91849772 -22.40953654 31.70088614 -24 28 C-23.625 25.75 -23.625 25.75 -23 24 C-22.67 24.33 -22.34 24.66 -22 25 C-21.98582031 24.19175781 -21.97164062 23.38351563 -21.95703125 22.55078125 C-21.56515647 13.77066791 -21.56515647 13.77066791 -18.9375 10.1875 C-17.968125 9.465625 -16.99875 8.74375 -16 8 C-14.62050685 6.75496038 -13.24576572 5.50464192 -11.875 4.25 C-7.96289115 0.74889091 -5.25427945 -0.14200755 0 0 Z " fill="#BBD8DF" transform="translate(46,26)"/>
<path d="M0 0 C3.15150969 2.13190362 4.49268939 3.98453525 6.125 7.4375 C6.06090715 14.14161184 2.5847322 20.84870184 -0.875 26.4375 C-3.92769846 27.96384923 -6.63345689 27.27544444 -10 27 C-11.28132813 26.89816406 -12.56265625 26.79632813 -13.8828125 26.69140625 C-14.87023438 26.60761719 -15.85765625 26.52382813 -16.875 26.4375 C-16.98457031 27.06398438 -17.09414063 27.69046875 -17.20703125 28.3359375 C-17.36558594 29.15320313 -17.52414063 29.97046875 -17.6875 30.8125 C-17.83832031 31.62460937 -17.98914062 32.43671875 -18.14453125 33.2734375 C-18.875 35.4375 -18.875 35.4375 -21.875 37.4375 C-23.49715174 34.19319653 -23.42792793 30.94371358 -22.875 27.4375 C-20.9375 24 -20.9375 24 -17.875 21.4375 C-14.86372885 20.67712886 -11.97470383 20.45100633 -8.875 20.4375 C-8.83632813 19.02597656 -8.83632813 19.02597656 -8.796875 17.5859375 C-8.22597897 5.05217467 -8.22597897 5.05217467 -3.875 0.4375 C-1.875 -0.5625 -1.875 -0.5625 0 0 Z " fill="#125567" transform="translate(60.875,14.5625)"/>
<path d="M0 0 C4.73324575 4.4875308 5.78927042 9.8080525 6.11132812 16.21459961 C6.17038107 18.74802165 6.18560748 21.27841173 6.1875 23.8125 C6.19974609 24.66392578 6.21199219 25.51535156 6.22460938 26.39257812 C6.24943435 37.25764223 4.04378945 46.82396133 -3.78515625 54.82421875 C-10.45948287 60.26509692 -19.10406669 63.78300615 -27.78515625 63.40625 C-31.82666359 62.66495059 -35.39006947 60.9116417 -39 59 C-36 58 -36 58 -33 59 C-30.93854893 59.068991 -28.87498599 59.08467727 -26.8125 59.0625 C-25.72582031 59.05347656 -24.63914062 59.04445312 -23.51953125 59.03515625 C-22.68808594 59.02355469 -21.85664062 59.01195312 -21 59 C-20.67 58.34 -20.34 57.68 -20 57 C-18.33678518 56.64984951 -16.66965451 56.31802943 -15 56 C-11.86458552 53.90972368 -11.52177056 53.20998478 -10 50 C-9.04119966 48.71812563 -8.04006043 47.4668707 -7 46.25 C-6.484375 45.63640625 -5.96875 45.0228125 -5.4375 44.390625 C-4 43 -4 43 -2 43 C-1.34 40.69 -0.68 38.38 0 36 C0.66 36 1.32 36 2 36 C2.05893685 32.0625648 2.09390669 28.12524573 2.125 24.1875 C2.14175781 23.08728516 2.15851563 21.98707031 2.17578125 20.85351562 C2.21813455 13.67463138 1.56258545 7.00873305 0 0 Z " fill="#000000" transform="translate(109,38)"/>
<path d="M0 0 C-3 1 -3 1 -6 0 C-15.14229961 -0.95656994 -25.05026209 0.52203458 -32.4375 6.375 C-35.13504631 9.13834012 -37.60300619 11.97221834 -40 15 C-40.7425 15.825 -41.485 16.65 -42.25 17.5 C-44.26283312 20.37547588 -44.67795958 22.53806544 -45 26 C-45.66 26 -46.32 26 -47 26 C-46.814375 26.61875 -46.62875 27.2375 -46.4375 27.875 C-46 30 -46 30 -47 32 C-47.52388231 39.07241112 -45.87163178 45.2116982 -44 52 C-43.66251623 53.33228886 -43.32734761 54.6651845 -43 56 C-49.26435177 50.50526859 -50.70488019 41.27923731 -51.25 33.375 C-51.04519264 22.66357485 -47.3858314 13.83754629 -40.18359375 6.03125 C-29.18707358 -4.45432075 -13.36818778 -7.39376312 0 0 Z " fill="#1C839D" transform="translate(59,12)"/>
<path d="M0 0 C1.7325 0.1546875 1.7325 0.1546875 3.5 0.3125 C6.34001271 4.57251907 5.83022099 8.24204863 5.8125 13.25 C5.82861328 14.15685547 5.84472656 15.06371094 5.86132812 15.99804688 C5.86197266 16.87396484 5.86261719 17.74988281 5.86328125 18.65234375 C5.86775269 19.84911743 5.86775269 19.84911743 5.87231445 21.07006836 C5.40778333 23.86791645 4.41357875 25.24739352 2.5 27.3125 C0.23828125 27.921875 0.23828125 27.921875 -2.1875 28.0625 C-3.610625 28.145 -5.03375 28.2275 -6.5 28.3125 C-6.5 31.2825 -6.5 34.2525 -6.5 37.3125 C0.01521971 37.7134366 4.3423687 37.50788666 9.5 33.3125 C12.25762629 30.57630604 14.25400343 28.05048971 15.5 24.3125 C16.16 24.3125 16.82 24.3125 17.5 24.3125 C16.20923237 30.19266366 13.04003898 33.59618117 8.5 37.3125 C5.25824613 39.36561078 2.68428868 39.58303525 -1.125 39.5625 C-2.08664063 39.56765625 -3.04828125 39.5728125 -4.0390625 39.578125 C-6.5 39.3125 -6.5 39.3125 -8.5 37.3125 C-8.77450545 33.96353346 -8.58628804 30.67773337 -8.5 27.3125 C-3.055 26.3225 -3.055 26.3225 2.5 25.3125 C2.5 24.3225 2.5 23.3325 2.5 22.3125 C-1.13 22.3125 -4.76 22.3125 -8.5 22.3125 C-8.83 21.6525 -9.16 20.9925 -9.5 20.3125 C-5.87 20.3125 -2.24 20.3125 1.5 20.3125 C1.5 17.3425 1.5 14.3725 1.5 11.3125 C-0.81 10.9825 -3.12 10.6525 -5.5 10.3125 C-5.6953125 4.2578125 -5.6953125 4.2578125 -5.5 2.3125 C-3.5 0.3125 -3.5 0.3125 0 0 Z " fill="#90BFCB" transform="translate(81.5,45.6875)"/>
<path d="M0 0 C0.66 0.33 1.32 0.66 2 1 C2.31389161 4.72684716 2.56847461 8.45547861 2.8125 12.1875 C2.90208984 13.24259766 2.99167969 14.29769531 3.08398438 15.38476562 C3.55548288 23.25134587 3.55548288 23.25134587 0.65234375 27.1640625 C-1.53352938 28.67711164 -3.59895911 29.88523101 -6 31 C-6.33 31.66 -6.66 32.32 -7 33 C0.5470952 29.91208126 0.5470952 29.91208126 7 25 C7.9731681 22.0804957 8.1929546 19.94555049 8.31640625 16.89453125 C8.35830078 15.91162109 8.40019531 14.92871094 8.44335938 13.91601562 C8.48267578 12.89185547 8.52199219 11.86769531 8.5625 10.8125 C8.60568359 9.77673828 8.64886719 8.74097656 8.69335938 7.67382812 C8.79944366 5.1160181 8.90150146 2.55811155 9 0 C9.99 0.33 10.98 0.66 12 1 C12.11709643 4.52054914 12.1875469 8.04059112 12.25 11.5625 C12.30027344 13.0484668 12.30027344 13.0484668 12.3515625 14.56445312 C12.45198149 22.1209823 11.21861427 26.0687485 6.39453125 31.9609375 C1.9383127 35.94402667 -1.99887295 37.2674921 -8 37 C-8.99 36.67 -9.98 36.34 -11 36 C-11 33.03 -11 30.06 -11 27 C-9.55625 26.731875 -8.1125 26.46375 -6.625 26.1875 C-4.18505129 25.79437923 -4.18505129 25.79437923 -2 25 C0.20192224 21.69711664 0.23959968 20.72537273 0.1953125 16.89453125 C0.18886719 15.91162109 0.18242188 14.92871094 0.17578125 13.91601562 C0.15902344 12.89185547 0.14226562 11.86769531 0.125 10.8125 C0.11597656 9.77673828 0.10695313 8.74097656 0.09765625 7.67382812 C0.0740786 5.11565315 0.0411703 2.55794252 0 0 Z " fill="#E1EEF1" transform="translate(86,47)"/>
<path d="M0 0 C2 1 2 1 2.62597656 2.75048828 C3.34966113 7.10298799 2.93892245 11.48398426 2.75 15.875 C2.70939453 17.34646484 2.70939453 17.34646484 2.66796875 18.84765625 C2.40175423 25.21104204 1.78790303 30.0382411 -2.75390625 34.86328125 C-3.35074219 35.34152344 -3.94757813 35.81976563 -4.5625 36.3125 C-5.46162109 37.04919922 -5.46162109 37.04919922 -6.37890625 37.80078125 C-9.26728171 39.93748309 -11.08523902 40.11306801 -14.625 40.0625 C-15.85089844 40.04896484 -15.85089844 40.04896484 -17.1015625 40.03515625 C-17.72804688 40.02355469 -18.35453125 40.01195312 -19 40 C-18.67 41.32 -18.34 42.64 -18 44 C-21.53411321 46.12046792 -24.94393835 46.53199289 -29 47 C-28.67 47.66 -28.34 48.32 -28 49 C-29.9375 48.1875 -29.9375 48.1875 -32 47 C-32.495 45.515 -32.495 45.515 -33 44 C-28.25120906 39.12624087 -26.49467539 37.95697904 -19.75 37.6875 C-12.57697452 37.16611269 -8.86873223 35.268307 -4.1875 29.875 C-1.22960002 25.98747432 -0.8540032 24.15609039 -0.68359375 19.3359375 C-0.62075195 17.65371094 -0.62075195 17.65371094 -0.55664062 15.9375 C-0.51732422 14.761875 -0.47800781 13.58625 -0.4375 12.375 C-0.37272461 10.59996094 -0.37272461 10.59996094 -0.30664062 8.7890625 C-0.20032574 5.85949672 -0.09829358 2.92984412 0 0 Z " fill="#124956" transform="translate(99,47)"/>
<path d="M0 0 C0.33 1.32 0.66 2.64 1 4 C0.40832031 4.25394531 -0.18335937 4.50789063 -0.79296875 4.76953125 C-8.50267346 7.56437698 -8.50267346 7.56437698 -14 13 C-14.14901491 15.10053716 -14.22138453 17.20687825 -14.25 19.3125 C-14.27578125 20.44300781 -14.3015625 21.57351562 -14.328125 22.73828125 C-13.96983683 26.29983623 -12.97097711 28.06946825 -11 31 C-11 31.66 -11 32.32 -11 33 C-6.1956792 35.4021604 -1.26896105 35.61122229 4 36 C3.67 36.66 3.34 37.32 3 38 C-1.25797944 38.93819886 -3.88898689 39.34010606 -8.0625 38.0625 C-12.97533018 34.61306604 -16.71932255 30.45463178 -19.5 25.125 C-20.46377579 19.10140133 -20.63971647 14.41075358 -17.09765625 9.203125 C-12.02451185 3.36183395 -8.07055414 -0.46117452 0 0 Z " fill="#2A7D92" transform="translate(46,26)"/>
<path d="M0 0 C1.77007714 -0.08114106 3.54122098 -0.13925505 5.3125 -0.1875 C6.29863281 -0.22230469 7.28476562 -0.25710937 8.30078125 -0.29296875 C11 0 11 0 12.8125 1.40234375 C15.59092225 5.14041842 15.38137878 9.49973044 15 14 C13.86993703 16.53647321 12.52715062 18.66155062 11 21 C9.68 21 8.36 21 7 21 C7.49885004 18.75517484 8.07656064 16.8378716 9.0625 14.75 C10.33117268 11.02856013 10.13296831 7.92256512 10 4 C7.69 3.67 5.38 3.34 3 3 C4.3089572 6.12197478 4.3089572 6.12197478 7 8 C7.09765625 14.15234375 7.09765625 14.15234375 7 16 C6 17 6 17 3.85546875 17.1328125 C2.97503906 17.13023438 2.09460937 17.12765625 1.1875 17.125 C0.31480469 17.12757812 -0.55789062 17.13015625 -1.45703125 17.1328125 C-3.84312306 17.00819327 -5.76617958 16.84313396 -8 16 C-8.66 15.01 -9.32 14.02 -10 13 C-9.67 12.01 -9.34 11.02 -9 10 C-7.7315625 10.99 -7.7315625 10.99 -6.4375 12 C-2.56563053 14.25272405 -0.39721203 14.35177696 4 14 C4.33 12.68 4.66 11.36 5 10 C3.35 9.67 1.7 9.34 0 9 C0 6.03 0 3.06 0 0 Z " fill="#E2EFF2" transform="translate(45,43)"/>
<path d="M0 0 C1.68524823 2.08723404 1.92028911 3.95922248 2.27734375 6.58203125 C1.63667969 6.22109375 0.99601562 5.86015625 0.3359375 5.48828125 C-4.81291111 2.72585875 -8.73059581 0.6421002 -14.72265625 1.58203125 C-17.43392009 3.00824809 -17.43392009 3.00824809 -19.72265625 4.58203125 C-20.71265625 4.58203125 -21.70265625 4.58203125 -22.72265625 4.58203125 C-22.72265625 5.24203125 -22.72265625 5.90203125 -22.72265625 6.58203125 C-23.71265625 6.25203125 -24.70265625 5.92203125 -25.72265625 5.58203125 C-27.45947249 10.79247998 -27.27423672 14.93376659 -24.84765625 19.83203125 C-23.57596564 22.18701386 -22.2119303 24.34812017 -20.72265625 26.58203125 C-24.85957965 24.84382814 -26.13841161 22.92404341 -27.94921875 18.92578125 C-29.62052765 13.86120882 -29.92562594 9.13249702 -27.6171875 4.23828125 C-25.24375038 0.72584884 -23.3518345 -1.12757879 -19.47265625 -2.91796875 C-6.30561589 -4.67357413 -6.30561589 -4.67357413 0 0 Z " fill="#B2D3DB" transform="translate(92.72265625,39.41796875)"/>
<path d="M0 0 C2.89433652 1.03369161 4.25853668 2.27894747 6.375 4.5625 C8.30649044 8.64834515 8.22506196 10.61012773 7.05078125 14.875 C5.22641083 18.56443312 2.51645097 19.98129666 -1 22 C-1.66 21.67 -2.32 21.34 -3 21 C-3 21.66 -3 22.32 -3 23 C-3.66 23 -4.32 23 -5 23 C-5 19.04 -5 15.08 -5 11 C-4.01 11 -3.02 11 -2 11 C0.46921528 8.00166715 1.05635938 6.59740941 0.6875 2.6875 C0.3471875 1.3571875 0.3471875 1.3571875 0 0 Z " fill="#0A313A" transform="translate(59,14)"/>
<path d="M0 0 C2.86969255 1.76596464 3.08402281 3.32488819 3.9375 6.625 C4.44799971 11.71108971 2.3656598 15.61388398 0 20 C-0.66 19.67 -1.32 19.34 -2 19 C-1.01 14.38 -0.02 9.76 1 5 C-3.75108933 5 -4.50471102 6.04244779 -8 9 C-11.01490557 10.00496852 -13.04181692 10.10335303 -16.1875 10.0625 C-17.08855469 10.05347656 -17.98960938 10.04445313 -18.91796875 10.03515625 C-19.60503906 10.02355469 -20.29210938 10.01195313 -21 10 C-21.33 10.99 -21.66 11.98 -22 13 C-28.75 12.25 -28.75 12.25 -31 10 C-30.34 9.67 -29.68 9.34 -29 9 C-28.34 9.33 -27.68 9.66 -27 10 C-27 9.34 -27 8.68 -27 8 C-26.14277344 7.97421875 -25.28554688 7.9484375 -24.40234375 7.921875 C-15.98501248 7.50432982 -11.3965701 6.41955452 -4.75 1.25 C-3 0 -3 0 0 0 Z " fill="#134D5C" transform="translate(63,62)"/>
<path d="M0 0 C3.91894024 2.61262683 4.07812826 4.46746393 5 9 C4.875 11.6875 4.875 11.6875 4 14 C3.319375 14.53625 2.63875 15.0725 1.9375 15.625 C-0.87135668 19.06811464 -0.21747304 22.0365137 0.0546875 26.34375 C-0.00398624 29.19361757 -0.66312741 30.53978763 -2 33 C-1.99476318 32.44014404 -1.98952637 31.88028809 -1.98413086 31.3034668 C-1.96333309 28.76482263 -1.95033096 26.22619641 -1.9375 23.6875 C-1.92912109 22.80642578 -1.92074219 21.92535156 -1.91210938 21.01757812 C-1.90888672 20.17001953 -1.90566406 19.32246094 -1.90234375 18.44921875 C-1.89710693 17.66893311 -1.89187012 16.88864746 -1.88647461 16.0847168 C-1.91862137 13.8038445 -1.91862137 13.8038445 -3 11 C-2.7525 9.824375 -2.7525 9.824375 -2.5 8.625 C-1.95221266 5.74911647 -2.27719833 3.81089538 -3 1 C-2.01 0.67 -1.02 0.34 0 0 Z " fill="#08272F" transform="translate(106,34)"/>
<path d="M0 0 C0.66 0.33 1.32 0.66 2 1 C1.34 1.66 0.68 2.32 0 3 C-2.67905902 7.01858853 -2.32182663 9.25305716 -2 14 C-1.34 14 -0.68 14 0 14 C0.99 11.36 1.98 8.72 3 6 C7.29 6 11.58 6 16 6 C16.66 7.32 17.32 8.64 18 10 C17.01 9.34 16.02 8.68 15 8 C12.26127045 7.54227937 12.26127045 7.54227937 9.3125 7.375 C7.82169922 7.26285156 7.82169922 7.26285156 6.30078125 7.1484375 C5.54152344 7.09945312 4.78226563 7.05046875 4 7 C4 9.97 4 12.94 4 16 C4.99 16 5.98 16 7 16 C7.33 17.32 7.66 18.64 8 20 C4.83513029 20.99467334 3.44871324 21.20298932 0.375 19.8125 C-2.07082817 17.94594692 -3.56411663 16.72062112 -5 14 C-5.54796494 8.97698803 -5.01491407 6.05853817 -2 2 C-1.34 1.34 -0.68 0.68 0 0 Z " fill="#5095A7" transform="translate(41,36)"/>
<path d="M0 0 C0.5534764 2.07553648 1 3.84365964 1 6 C1.66 6 2.32 6 3 6 C3.0825 5.38125 3.165 4.7625 3.25 4.125 C4 2 4 2 6.0625 0.75 C6.701875 0.5025 7.34125 0.255 8 0 C7.01 1.5159375 7.01 1.5159375 6 3.0625 C3.85755887 6.85002985 3.35015067 9.61351705 4 14 C5.40878096 16.9901643 5.40878096 16.9901643 8 19 C11.64182335 19.89055736 11.64182335 19.89055736 15 20 C15 19.01 15 18.02 15 17 C15.66 17 16.32 17 17 17 C16.67 18.65 16.34 20.3 16 22 C10.28341664 22.45732667 7.51350747 21.52273754 3 18 C3.33 19.65 3.66 21.3 4 23 C3.34 23 2.68 23 2 23 C-2.665563 16.73064972 -2.89209731 10.67618613 -2 3 C-1.34 2.01 -0.68 1.02 0 0 Z " fill="#ACD0D9" transform="translate(33,36)"/>
<path d="M0 0 C2 2 2 2 2.22705078 4.06298828 C2.21657715 4.89040527 2.20610352 5.71782227 2.1953125 6.5703125 C2.18886719 7.46621094 2.18242188 8.36210938 2.17578125 9.28515625 C2.15902344 10.22230469 2.14226562 11.15945312 2.125 12.125 C2.11597656 13.06988281 2.10695313 14.01476563 2.09765625 14.98828125 C2.07404522 17.32577292 2.04111516 19.66276123 2 22 C1.01 22 0.02 22 -1 22 C-1.66 23.32 -2.32 24.64 -3 26 C-3.33 26 -3.66 26 -4 26 C-3.835 24.700625 -3.67 23.40125 -3.5 22.0625 C-2.9684362 17.34580713 -2.92470459 12.74361065 -3 8 C-3.66 7.67 -4.32 7.34 -5 7 C-4.67 6.01 -4.34 5.02 -4 4 C-3.34 4 -2.68 4 -2 4 C-1.34 2.68 -0.68 1.36 0 0 Z " fill="#05191F" transform="translate(110,47)"/>
<path d="M0 0 C0.99 0 1.98 0 3 0 C4.00821159 2.68856424 4.22736824 4.41703215 3.17578125 7.11328125 C2.16604698 9.10794931 1.11893353 11.0646772 0 13 C-0.66 12.34 -1.32 11.68 -2 11 C-2.33 14.63 -2.66 18.26 -3 22 C-2.34 22 -1.68 22 -1 22 C-1 21.34 -1 20.68 -1 20 C-0.401875 19.855625 0.19625 19.71125 0.8125 19.5625 C2.56150404 19.1127561 4.28677023 18.57107659 6 18 C5.125 22.875 5.125 22.875 4 24 C2.35769636 24.1245486 0.70947724 24.17568524 -0.9375 24.1875 C-1.83339844 24.20167969 -2.72929688 24.21585938 -3.65234375 24.23046875 C-6 24 -6 24 -8 22 C-6.68 22 -5.36 22 -4 22 C-4.04640625 20.91460937 -4.0928125 19.82921875 -4.140625 18.7109375 C-4.17816487 17.26565269 -4.21456264 15.82033789 -4.25 14.375 C-4.28351562 13.66214844 -4.31703125 12.94929688 -4.3515625 12.21484375 C-4.4463541 7.04870169 -3.53349333 4.02919923 0 0 Z " fill="#0D404C" transform="translate(57,15)"/>
<path d="M0 0 C-0.45890625 0.35191406 -0.9178125 0.70382813 -1.390625 1.06640625 C-6.81243596 5.42891381 -10.48638145 9.28279459 -11.4609375 16.3359375 C-11.71967031 19.5596085 -11.90278976 22.76775963 -12 26 C-13.32 25.34 -14.64 24.68 -16 24 C-16.53224571 14.02532106 -14.20716925 9.07261044 -7.62109375 1.63671875 C-4.87146857 -1.13940884 -3.60575728 -1.08172718 0 0 Z " fill="#CEE3E8" transform="translate(37,26)"/>
<path d="M0 0 C2.125 0.9375 2.125 0.9375 4 2 C4 2.99 4 3.98 4 5 C-6.13572126 9.11304631 -14.8081052 9.00460291 -25 5 C-28.125 3.3125 -28.125 3.3125 -30 2 C-28 1 -28 1 -26.07421875 1.55859375 C-25.28660156 1.84863281 -24.49898437 2.13867188 -23.6875 2.4375 C-17.45726777 4.4443098 -11.48269904 4.2743462 -5 4 C-4.67 3.34 -4.34 2.68 -4 2 C-3.34 2.33 -2.68 2.66 -2 3 C-2 2.34 -2 1.68 -2 1 C-1.34 0.67 -0.68 0.34 0 0 Z " fill="#000000" transform="translate(57,78)"/>
<path d="M0 0 C3.85286789 3.38326229 3.85286789 3.38326229 4.50170898 6.10302734 C4.49985596 6.8398877 4.49800293 7.57674805 4.49609375 8.3359375 C4.49706055 9.56183594 4.49706055 9.56183594 4.49804688 10.8125 C4.47806641 11.658125 4.45808594 12.50375 4.4375 13.375 C4.44458984 14.21289062 4.45167969 15.05078125 4.45898438 15.9140625 C4.3902295 22.6414626 3.06658403 26.93341597 -1.8125 31.8125 C-5.07405097 34.05081929 -7.10070252 34.72147875 -11 35 C-11 34.34 -11 33.68 -11 33 C-10.45730469 32.82984375 -9.91460937 32.6596875 -9.35546875 32.484375 C-8.64003906 32.24203125 -7.92460938 31.9996875 -7.1875 31.75 C-6.47980469 31.51796875 -5.77210937 31.2859375 -5.04296875 31.046875 C-2.44136202 29.71373809 -1.50692159 28.50800854 0 26 C0.41182 23.100216 0.41182 23.100216 0.29296875 19.921875 C0.2784668 18.18164062 0.2784668 18.18164062 0.26367188 16.40625 C0.23853516 15.1996875 0.21339844 13.993125 0.1875 12.75 C0.17396484 11.52796875 0.16042969 10.3059375 0.14648438 9.046875 C0.1111398 6.03080502 0.0617956 3.01562513 0 0 Z " fill="#4293A7" transform="translate(90,45)"/>
<path d="M0 0 C0.495 0.99 0.495 0.99 1 2 C0.42894531 1.7834375 -0.14210938 1.566875 -0.73046875 1.34375 C-10.0204102 -1.84643657 -18.70008135 -2.18890653 -28 1 C-29.32 1 -30.64 1 -32 1 C-31.875 -0.875 -31.875 -0.875 -31 -3 C-20.4485612 -7.36558067 -9.73445112 -5.53856702 0 0 Z " fill="#1D849E" transform="translate(100,27)"/>
<path d="M0 0 C0.99 0 1.98 0 3 0 C3.33 0.99 3.66 1.98 4 3 C5.72281715 4.0076855 7.4495678 5.01054642 9.2109375 5.94921875 C11.51880148 7.30471091 13.22491874 9.01190899 15 11 C14.01 11 13.02 11 12 11 C12 11.66 12 12.32 12 13 C9.1875 15.6875 9.1875 15.6875 6 18 C5.01 17.67 4.02 17.34 3 17 C3.66 16.01 4.32 15.02 5 14 C5.24055468 11.94290404 5.24055468 11.94290404 5.125 9.8125 C5.063125 7.9253125 5.063125 7.9253125 5 6 C4.01 5.67 3.02 5.34 2 5 C2 4.34 2 3.68 2 3 C0.68 3.33 -0.64 3.66 -2 4 C-1.34 2.68 -0.68 1.36 0 0 Z " fill="#13596A" transform="translate(61,59)"/>
<path d="M0 0 C0.66 0.66 1.32 1.32 2 2 C1.32453125 2.02578125 0.6490625 2.0515625 -0.046875 2.078125 C-5.57626365 2.4193779 -5.57626365 2.4193779 -10.625 4.5 C-12.72147263 8.31176842 -12.88629212 11.75898232 -12 16 C-10.56162971 18.44373638 -9.05673704 19.99468139 -7 22 C-10.48897679 21.35389319 -13.06769549 19.98128683 -16 18 C-17.56820874 14.86358252 -17.38163039 11.42820517 -17 8 C-15.43176503 3.75008323 -13.13159913 2.59162328 -9.16796875 0.7578125 C-5.9984792 -0.35008115 -3.3110151 -0.39732181 0 0 Z " fill="#9BC7D2" transform="translate(85,40)"/>
<path d="M0 0 C2.5 0.25 2.5 0.25 4.5 2.25 C4.64507695 4.99485593 4.68652423 7.63480543 4.625 10.375 C4.61597656 11.12910156 4.60695313 11.88320313 4.59765625 12.66015625 C4.5740687 14.52357254 4.53819719 16.38682593 4.5 18.25 C4.17 18.25 3.84 18.25 3.5 18.25 C3.17 15.61 2.84 12.97 2.5 10.25 C0.52 9.59 -1.46 8.93 -3.5 8.25 C-4.125 5.375 -4.125 5.375 -4.5 2.25 C-2.5 0.25 -2.5 0.25 0 0 Z " fill="#21758A" transform="translate(81.5,46.75)"/>
<path d="M0 0 C1.97239152 1.6293669 2.94109032 2.84851796 3.875 5.25 C4.05566106 9.22454322 2.94341825 11.55199987 1 15 C-0.91966243 16.66630597 -2.75812492 17.75451384 -5 19 C-5.6484375 17.23828125 -5.6484375 17.23828125 -6 15 C-5.0390625 13.10546875 -5.0390625 13.10546875 -3.625 11.1875 C-1.02569533 7.34974545 -0.28727321 4.59637133 0 0 Z " fill="#061F26" transform="translate(63,17)"/>
<path d="M0 0 C1.85961735 2.78942602 2.05673195 4.75305588 1.875 8 C1.76523765 11.46732687 1.76523765 11.46732687 3.9375 14.3125 C4.618125 14.869375 5.29875 15.42625 6 16 C6.33 16.99 6.66 17.98 7 19 C8.98 19.33 10.96 19.66 13 20 C9.77011842 22.15325439 8.74885286 22.54137161 5 22 C3.234375 20.35546875 3.234375 20.35546875 1.75 18.1875 C1.24984375 17.47980469 0.7496875 16.77210937 0.234375 16.04296875 C-2.19602039 12.02051055 -2.24282173 8.61361282 -2 4 C-1 1.5625 -1 1.5625 0 0 Z " fill="#DEECF0" transform="translate(67,44)"/>
<path d="M0 0 C0.66 0 1.32 0 2 0 C2 2.97 2 5.94 2 9 C-0.31 9 -2.62 9 -5 9 C-5.33 9.99 -5.66 10.98 -6 12 C-8.5 13.5 -8.5 13.5 -11 15 C-11.33 15.99 -11.66 16.98 -12 18 C-12.66 18 -13.32 18 -14 18 C-14 20.64 -14 23.28 -14 26 C-14.33 26 -14.66 26 -15 26 C-15.42918006 13.72068167 -15.42918006 13.72068167 -11.4375 9.25 C-7.78570141 7.37728277 -4.05425795 7.25122539 0 7 C0 4.69 0 2.38 0 0 Z " fill="#DBEAEE" transform="translate(48,24)"/>
<path d="M0 0 C0.66 0 1.32 0 2 0 C5 4.38461538 5 4.38461538 5 7 C9.8043208 9.4021604 14.73103895 9.61122229 20 10 C19.67 10.66 19.34 11.32 19 12 C14.74202056 12.93819886 12.11101311 13.34010606 7.9375 12.0625 C3.94133325 9.25668079 1.04323437 5.79053748 -2 2 C-1.34 1.34 -0.68 0.68 0 0 Z " fill="#288399" transform="translate(30,52)"/>
<path d="M0 0 C-2.40545638 1.20272819 -3.94996953 1.10071472 -6.625 1.0625 C-7.85089844 1.04896484 -7.85089844 1.04896484 -9.1015625 1.03515625 C-10.04128906 1.01775391 -10.04128906 1.01775391 -11 1 C-10.67 2.32 -10.34 3.64 -10 5 C-13.53411321 7.12046792 -16.94393835 7.53199289 -21 8 C-20.67 8.66 -20.34 9.32 -20 10 C-21.32 9.34 -22.64 8.68 -24 8 C-24 7.01 -24 6.02 -24 5 C-23.071875 4.9175 -22.14375 4.835 -21.1875 4.75 C-17.91539627 4.35889917 -17.91539627 4.35889917 -16.640625 2.00390625 C-15 0 -15 0 -12.44140625 -0.64453125 C-11.49136719 -0.69996094 -10.54132813 -0.75539063 -9.5625 -0.8125 C-8.61503906 -0.88082031 -7.66757813 -0.94914062 -6.69140625 -1.01953125 C-4.246241 -1.00178694 -2.32303286 -0.71942625 0 0 Z " fill="#0B333E" transform="translate(91,86)"/>
<path d="M0 0 C1.04585393 3.39902527 1 6.46144479 1 10 C1.29714023 12.00569659 1.62061383 14.00822259 2 16 C1.34 16 0.68 16 0 16 C0.45699278 21.02692063 2.99241748 24.14896261 6 28 C2.20324457 26.5276199 0.75375977 24.58072974 -1.3125 21.125 C-1.84488281 20.26132812 -2.37726562 19.39765625 -2.92578125 18.5078125 C-4.1081058 15.74762209 -4.08908636 14.73863822 -3 12 C-2.67 12.33 -2.34 12.66 -2 13 C-1.93941406 12.14535156 -1.87882812 11.29070313 -1.81640625 10.41015625 C-1.69072266 8.75306641 -1.69072266 8.75306641 -1.5625 7.0625 C-1.48128906 5.96035156 -1.40007813 4.85820313 -1.31640625 3.72265625 C-1 1 -1 1 0 0 Z " fill="#98C3CE" transform="translate(26,38)"/>
<path d="M0 0 C2.33294775 -0.04241723 4.66702567 -0.04092937 7 0 C8 1 8 1 8.1875 4.8125 C8.1585691 8.03540201 7.82970185 10.25544723 6 13 C5.67 13 5.34 13 5 13 C4.87625 11.3603125 4.87625 11.3603125 4.75 9.6875 C4.38836869 5.96399307 4.38836869 5.96399307 1.9375 4.25 C1.298125 3.8375 0.65875 3.425 0 3 C0 2.01 0 1.02 0 0 Z " fill="#BBD9E0" transform="translate(48,46)"/>
<path d="M0 0 C6.24158219 -0.5651332 10.75000695 -0.53403185 15.7265625 3.5546875 C17.50823016 5.57682564 17.92393149 7.33760228 18 10 C15.36 8.68 12.72 7.36 10 6 C10 5.01 10 4.02 10 3 C6.7 2.67 3.4 2.34 0 2 C0 1.34 0 0.68 0 0 Z " fill="#E2EEF1" transform="translate(77,36)"/>
<path d="M0 0 C2.6875 -0.3125 2.6875 -0.3125 6 0 C8.875 2.5 8.875 2.5 11 5 C10.67 5.99 10.34 6.98 10 8 C5.17965738 7.58682778 3.09007389 5.61980085 0 2 C0 1.34 0 0.68 0 0 Z " fill="#0C3B46" transform="translate(19,71)"/>
<path d="M0 0 C-1.74096181 2.24874233 -3.11130619 3.79257851 -5.94140625 4.453125 C-7.95688125 4.67582942 -9.9786144 4.83957257 -12 5 C-12.99 5.33 -13.98 5.66 -15 6 C-15.66 5.67 -16.32 5.34 -17 5 C-17 4.34 -17 3.68 -17 3 C-15.88625 2.814375 -15.88625 2.814375 -14.75 2.625 C-12.06403286 2.16009589 -12.06403286 2.16009589 -10.1875 0.9375 C-6.79714167 -0.51551071 -3.66645591 -0.1222152 0 0 Z " fill="#082931" transform="translate(46,75)"/>
<path d="M0 0 C0 0.33 0 0.66 0 1 C-2.31 1 -4.62 1 -7 1 C-7.226875 1.61875 -7.45375 2.2375 -7.6875 2.875 C-9.39573419 5.6407125 -10.93938502 6.08181551 -14 7 C-14.66 7 -15.32 7 -16 7 C-15.70926678 4.18957887 -15.18436938 3.16652718 -13.0625 1.25 C-8.70270059 -0.52950996 -4.64846562 -0.24370596 0 0 Z " fill="#125161" transform="translate(83,85)"/>
<path d="M0 0 C4.60646722 0.83392941 8.40936282 3.20678139 11.71875 6.4921875 C11.71875 7.4821875 11.71875 8.4721875 11.71875 9.4921875 C11.30367187 9.0590625 10.88859375 8.6259375 10.4609375 8.1796875 C4.74743896 3.01602355 0.0301727 2.9490365 -7.5 3.28125 C-8.87671875 3.38566406 -8.87671875 3.38566406 -10.28125 3.4921875 C-7.2165054 -0.21516484 -4.60613991 -0.12192723 0 0 Z " fill="#76B0BF" transform="translate(83.28125,33.5078125)"/>
<path d="M0 0 C0.33 0 0.66 0 1 0 C1.13277344 0.74765625 1.26554687 1.4953125 1.40234375 2.265625 C1.57894531 3.25046875 1.75554687 4.2353125 1.9375 5.25 C2.19853516 6.71179687 2.19853516 6.71179687 2.46484375 8.203125 C2.90379729 10.49721795 3.40348592 12.74291971 4 15 C3.01 14.67 2.02 14.34 1 14 C1 13.01 1 12.02 1 11 C-0.32 11.33 -1.64 11.66 -3 12 C-2.88601335 10.37419034 -2.75844341 8.74932843 -2.625 7.125 C-2.55539063 6.22007813 -2.48578125 5.31515625 -2.4140625 4.3828125 C-2 2 -2 2 0 0 Z " fill="#20778D" transform="translate(63,48)"/>
<path d="M0 0 C0.33 0 0.66 0 1 0 C1.66 3.3 2.32 6.6 3 10 C3.99 10.33 4.98 10.66 6 11 C6 11.66 6 12.32 6 13 C6.66 13 7.32 13 8 13 C8 14.32 8 15.64 8 17 C6.02 17 4.04 17 2 17 C1.67 15.68 1.34 14.36 1 13 C1.66 13 2.32 13 3 13 C2.505 12.525625 2.01 12.05125 1.5 11.5625 C-0.70453669 7.79641649 -0.24608113 4.26540621 0 0 Z " fill="#B1D3DC" transform="translate(72,47)"/>
<path d="M0 0 C1.20076869 2.40153738 0.94835426 3.59926579 0.75 6.25 C0.678969 9.91401592 1.11587659 11.7564671 3.5 14.5625 C4.7375 15.7690625 4.7375 15.7690625 6 17 C3.41529556 16.63075651 1.95420858 15.96729184 -0.1875 14.4375 C-2.65024738 11.12552938 -3.25249514 8.10725424 -3 4 C-1.5625 1.5 -1.5625 1.5 0 0 Z " fill="#4094A9" transform="translate(72,45)"/>
<path d="M0 0 C5.28 0.33 10.56 0.66 16 1 C16 1.33 16 1.66 16 2 C12.7 2 9.4 2 6 2 C5.67 2.99 5.34 3.98 5 5 C-1.75 4.25 -1.75 4.25 -4 2 C-3.34 1.67 -2.68 1.34 -2 1 C-1.34 1.33 -0.68 1.66 0 2 C0 1.34 0 0.68 0 0 Z " fill="#0C3B47" transform="translate(36,70)"/>
<path d="M0 0 C2.48002593 2.48002593 2.29694693 3.32832513 2.3125 6.75 C2.18441751 11.98631337 1.2691977 15.60680242 -2.4296875 19.5078125 C-4 20.9375 -4 20.9375 -7 23 C-7.99 22.67 -8.98 22.34 -10 22 C-8.63875 21.2265625 -8.63875 21.2265625 -7.25 20.4375 C-3.66693751 17.99218721 -1.315738 15.15894197 0 11 C0.30871024 7.3054355 0.24066182 3.69683303 0 0 Z " fill="#7BB1BF" transform="translate(59,46)"/>
<path d="M0 0 C0.33 0.99 0.66 1.98 1 3 C-1.14419403 7.0707443 -3.7910725 10.36925522 -7.875 12.5 C-8.57625 12.665 -9.2775 12.83 -10 13 C-8.64763423 10.06120516 -7.10057341 7.70767089 -5 5.25 C-4.2265625 4.32960938 -4.2265625 4.32960938 -3.4375 3.390625 C-2 2 -2 2 0 2 C0 1.34 0 0.68 0 0 Z " fill="#020C0E" transform="translate(107,79)"/>
<path d="M0 0 C0 3.51716303 -0.82445585 4.37121748 -3 7 C-2.34 7.33 -1.68 7.66 -1 8 C-2.65 8.66 -4.3 9.32 -6 10 C-6 9.67 -6 9.34 -6 9 C-8.31 8.67 -10.62 8.34 -13 8 C-12.67 7.01 -12.34 6.02 -12 5 C-12 5.66 -12 6.32 -12 7 C-10.55877387 6.40477663 -9.12214132 5.79842381 -7.6875 5.1875 C-6.88699219 4.85105469 -6.08648437 4.51460938 -5.26171875 4.16796875 C-3.03484255 3.01799296 -1.65012233 1.86373039 0 0 Z " fill="#CBE1E7" transform="translate(91,73)"/>
<path d="M0 0 C1.65 0 3.3 0 5 0 C4.01 0.66 3.02 1.32 2 2 C1.67 3.32 1.34 4.64 1 6 C3.97 6 6.94 6 10 6 C9.01 7.485 9.01 7.485 8 9 C5 9.3125 5 9.3125 2 9 C0 7 0 7 -0.125 3.375 C-0.08375 2.26125 -0.0425 1.1475 0 0 Z " fill="#EDF4F6" transform="translate(76,75)"/>
<path d="M0 0 C0.99 0.33 1.98 0.66 3 1 C4.50717296 7.90787608 3.3284547 11.82878785 0 18 C-0.66 17.67 -1.32 17.34 -2 17 C-1.67 16.05125 -1.34 15.1025 -1 14.125 C0.3644458 9.44552744 0.17499341 4.83176241 0 0 Z " fill="#0C3C49" transform="translate(63,64)"/>
<path d="M0 0 C1.9375 0.6875 1.9375 0.6875 4 2 C5 4.25 5 4.25 5 7 C3.0625 10.3125 3.0625 10.3125 1 13 C0 10 0 10 0.5 7.625 C1.04778734 4.74911647 0.72280167 2.81089538 0 0 Z " fill="#0B3540" transform="translate(103,35)"/>
<path d="M0 0 C2.27991712 1.77502198 2.95047123 2.6300787 3.34057617 5.54370117 C3.32486572 6.53345947 3.30915527 7.52321777 3.29296875 8.54296875 C3.28330078 9.61611328 3.27363281 10.68925781 3.26367188 11.79492188 C3.23853516 12.91447266 3.21339844 14.03402344 3.1875 15.1875 C3.16719727 16.88422852 3.16719727 16.88422852 3.14648438 18.61523438 C3.11109958 21.41063317 3.06172948 24.20507892 3 27 C2.67 27 2.34 27 2 27 C1.97494385 26.35973877 1.9498877 25.71947754 1.92407227 25.05981445 C1.8076454 22.14386274 1.68513133 19.2281971 1.5625 16.3125 C1.52318359 15.30509766 1.48386719 14.29769531 1.44335938 13.25976562 C1.40146484 12.28330078 1.35957031 11.30683594 1.31640625 10.30078125 C1.26141968 8.95753784 1.26141968 8.95753784 1.20532227 7.5871582 C0.99938249 4.99221912 0.56232178 2.53945316 0 0 Z " fill="#A7CAD3" transform="translate(96,43)"/>
<path d="M0 0 C0.33 0.66 0.66 1.32 1 2 C1.66 2.33 2.32 2.66 3 3 C2.34 3 1.68 3 1 3 C1 3.66 1 4.32 1 5 C-2.465 6.485 -2.465 6.485 -6 8 C-5.67 8.66 -5.34 9.32 -5 10 C-6.32 9.34 -7.64 8.68 -9 8 C-9 7.01 -9 6.02 -9 5 C-8.071875 4.9175 -7.14375 4.835 -6.1875 4.75 C-2.91490121 4.29742448 -2.91490121 4.29742448 -1.125 1.9375 C-0.75375 1.298125 -0.3825 0.65875 0 0 Z " fill="#0D3D49" transform="translate(76,86)"/>
<path d="M0 0 C0.33 0 0.66 0 1 0 C1.22151549 1.79008467 1.42682213 3.58218162 1.625 5.375 C1.74101563 6.37273438 1.85703125 7.37046875 1.9765625 8.3984375 C1.98429687 9.25695312 1.99203125 10.11546875 2 11 C1.34 11.66 0.68 12.32 0 13 C0 12.34 0 11.68 0 11 C-3.63 11 -7.26 11 -11 11 C-11.33 10.34 -11.66 9.68 -12 9 C-8.04 9.33 -4.08 9.66 0 10 C0 6.7 0 3.4 0 0 Z " fill="#529CAF" transform="translate(84,57)"/>
<path d="M0 0 C0.66 0 1.32 0 2 0 C2 2.97 2 5.94 2 9 C-1.3 9.66 -4.6 10.32 -8 11 C-7.67 10.01 -7.34 9.02 -7 8 C-3.535 7.505 -3.535 7.505 0 7 C0 4.69 0 2.38 0 0 Z " fill="#EEF5F7" transform="translate(48,24)"/>
<path d="M0 0 C2.31 0 4.62 0 7 0 C7 0.99 7 1.98 7 3 C3.5980513 5.09350689 0.94727588 5.17942163 -3 5 C-2.505 4.54625 -2.01 4.0925 -1.5 3.625 C0.22609337 2.12364481 0.22609337 2.12364481 0 0 Z " fill="#21788E" transform="translate(77,68)"/>
<path d="M0 0 C0.99 0 1.98 0 3 0 C3.33 0.99 3.66 1.98 4 3 C4.66 3.33 5.32 3.66 6 4 C6.40729228 6.32156597 6.74438677 8.6568787 7 11 C6.34 11 5.68 11 5 11 C5 9.35 5 7.7 5 6 C4.01 5.67 3.02 5.34 2 5 C2 4.34 2 3.68 2 3 C0.68 3.33 -0.64 3.66 -2 4 C-1.34 2.68 -0.68 1.36 0 0 Z " fill="#11505F" transform="translate(61,59)"/>
<path d="M0 0 C0.66 0.33 1.32 0.66 2 1 C1.360625 1.66 0.72125 2.32 0.0625 3 C-2.58912502 6.85690912 -2.68667121 9.37840033 -3 14 C-3.66 14 -4.32 14 -5 14 C-5.29557392 8.97524332 -5.0282379 6.07647409 -2 2 C-1.34 1.34 -0.68 0.68 0 0 Z " fill="#256F82" transform="translate(41,36)"/>
<path d="M0 0 C0.66 0.33 1.32 0.66 2 1 C0.59106853 2.63171123 -0.82745958 4.25513945 -2.25 5.875 C-3.03890625 6.77992187 -3.8278125 7.68484375 -4.640625 8.6171875 C-6.74691403 10.74439993 -8.25651526 11.90512306 -11 13 C-9.49091551 9.15869402 -7.1970513 7.51196888 -4 5 C-2.62631655 3.36643049 -1.28062485 1.7074998 0 0 Z " fill="#051A1F" transform="translate(103,78)"/>
<path d="M0 0 C2.47359354 0.95752008 3.73064878 1.49496645 5 3.875 C5 6 5 6 3.25 8 C2.5075 8.66 1.765 9.32 1 10 C-0.02323436 11.31558703 -1.03126968 12.64377755 -2 14 C-1.53413801 11.2824717 -0.987525 8.97158472 0.125 6.4375 C1.08884279 3.75250938 0.97354831 2.62858044 0 0 Z " fill="#0B343E" transform="translate(59,14)"/>
<path d="M0 0 C2.64 0 5.28 0 8 0 C8 1.65 8 3.3 8 5 C1.125 2.25 1.125 2.25 0 0 Z " fill="#082931" transform="translate(69,93)"/>
<path d="M0 0 C0.99 0.33 1.98 0.66 3 1 C2.45730469 1.47050781 1.91460937 1.94101562 1.35546875 2.42578125 C0.28232422 3.35970703 0.28232422 3.35970703 -0.8125 4.3125 C-1.52019531 4.92738281 -2.22789063 5.54226562 -2.95703125 6.17578125 C-4.70136739 7.73334335 -6.36778041 9.32658875 -8 11 C-7.42429187 7.11397015 -5.58424279 4.88827136 -3 2 C-2.01 1.34 -1.02 0.68 0 0 Z " fill="#94C2CD" transform="translate(35,27)"/>
<path d="M0 0 C3.3 0 6.6 0 10 0 C9.67 0.66 9.34 1.32 9 2 C6.35139573 2.59355614 3.70802678 2.74209269 1 3 C0.67 2.01 0.34 1.02 0 0 Z " fill="#358BA1" transform="translate(40,62)"/>
<path d="M0 0 C1.65 0 3.3 0 5 0 C6.80411967 2.75924185 7.0127245 3.88972103 6.625 7.25 C6.41875 8.1575 6.2125 9.065 6 10 C5.67 10 5.34 10 5 10 C4.731875 8.906875 4.46375 7.81375 4.1875 6.6875 C3.12336261 3.38307337 2.65345336 2.05039578 0 0 Z " fill="#529EB1" transform="translate(49,47)"/>
<path d="M0 0 C0.66 0 1.32 0 2 0 C2.33 3.63 2.66 7.26 3 11 C2.01 10.34 1.02 9.68 0 9 C-0.29296875 6.8359375 -0.29296875 6.8359375 -0.1875 4.375 C-0.16042969 3.55773438 -0.13335938 2.74046875 -0.10546875 1.8984375 C-0.05326172 0.95871094 -0.05326172 0.95871094 0 0 Z " fill="#E5F0F2" transform="translate(22,41)"/>
<path d="M0 0 C0.598125 0.20625 1.19625 0.4125 1.8125 0.625 C-3.9375 5.625 -3.9375 5.625 -6.1875 5.625 C-5.875 3.75 -5.875 3.75 -5.1875 1.625 C-2.1875 -0.375 -2.1875 -0.375 0 0 Z " fill="#E2EFF2" transform="translate(35.1875,25.375)"/>
<path d="M0 0 C3 1 3 1 4.6875 4.0625 C5.120625 5.031875 5.55375 6.00125 6 7 C5.01 7.33 4.02 7.66 3 8 C0.37613513 4.93882432 0 4.26826873 0 0 Z " fill="#DEECF0" transform="translate(25,53)"/>
<path d="M0 0 C0.66 0 1.32 0 2 0 C1.5206753 4.31392226 0.2542015 6.16569547 -3 9 C-3.33 8.34 -3.66 7.68 -4 7 C-3.22265625 5.2734375 -3.22265625 5.2734375 -2.0625 3.375 C-1.381875 2.26125 -0.70125 1.1475 0 0 Z " fill="#082831" transform="translate(61,21)"/>
<path d="M0 0 C0.99 0.33 1.98 0.66 3 1 C2.67 1.66 2.34 2.32 2 3 C1.34 3 0.68 3 0 3 C-0.66 4.98 -1.32 6.96 -2 9 C-2.66 9 -3.32 9 -4 9 C-3.46930939 5.17902761 -2.50298434 2.93828597 0 0 Z " fill="#115060" transform="translate(57,15)"/>
<path d="M0 0 C0.99 0.33 1.98 0.66 3 1 C4.33106622 1.34227417 5.66400079 1.67751743 7 2 C7 2.66 7 3.32 7 4 C4.36 4 1.72 4 -1 4 C-0.67 2.68 -0.34 1.36 0 0 Z " fill="#051A1F" transform="translate(78,94)"/>
<path d="M0 0 C1.65 0.33 3.3 0.66 5 1 C4.67 1.99 4.34 2.98 4 4 C1.69 3.67 -0.62 3.34 -3 3 C-2.01 2.67 -1.02 2.34 0 2 C0 1.34 0 0.68 0 0 Z " fill="#31879D" transform="translate(44,53)"/>
<path d="M0 0 C0.5625 1.9375 0.5625 1.9375 1 4 C0.67 4.33 0.34 4.66 0 5 C-0.23363881 6.84891946 -0.41303635 8.70488031 -0.5625 10.5625 C-0.64628906 11.57441406 -0.73007812 12.58632813 -0.81640625 13.62890625 C-0.87699219 14.41136719 -0.93757813 15.19382812 -1 16 C-1.33 16 -1.66 16 -2 16 C-2.05402274 13.89611431 -2.09280256 11.79183286 -2.125 9.6875 C-2.14820312 8.51574219 -2.17140625 7.34398437 -2.1953125 6.13671875 C-2 3 -2 3 0 0 Z " fill="#7AB3C1" transform="translate(33,36)"/>
<path d="M0 0 C2 0 4 0 6 0 C6.33 0.99 6.66 1.98 7 3 C6.67 3.66 6.34 4.32 6 5 C4.125 4.75 4.125 4.75 2 4 C0.75 1.9375 0.75 1.9375 0 0 Z " fill="#0A323C" transform="translate(23,74)"/>
<path d="M0 0 C0.99 0.33 1.98 0.66 3 1 C-1.39453125 5.00390625 -1.39453125 5.00390625 -3 6 C-3.99 5.67 -4.98 5.34 -6 5 C-1.60546875 0.99609375 -1.60546875 0.99609375 0 0 Z " fill="#0B333D" transform="translate(58,65)"/>
<path d="M0 0 C0.99 0.33 1.98 0.66 3 1 C3.33 3.64 3.66 6.28 4 9 C1.47740939 7.02579865 1.0070192 6.03254358 0.3125 2.8125 C0.209375 1.884375 0.10625 0.95625 0 0 Z " fill="#1D849E" transform="translate(61,82)"/>
<path d="M0 0 C2.475 0.495 2.475 0.495 5 1 C5.66 2.98 6.32 4.96 7 7 C5.83040013 6.02433888 4.66438823 5.044375 3.5 4.0625 C2.8503125 3.51722656 2.200625 2.97195312 1.53125 2.41015625 C1.0259375 1.94480469 0.520625 1.47945312 0 1 C0 0.67 0 0.34 0 0 Z " fill="#ECF4F6" transform="translate(88,39)"/>
<path d="M0 0 C0.66 0.33 1.32 0.66 2 1 C0.515 4.96 0.515 4.96 -1 9 C-1.33 9 -1.66 9 -2 9 C-1.125 1.125 -1.125 1.125 0 0 Z " fill="#156174" transform="translate(42,42)"/>
<path d="M0 0 C2.0625 0.6875 2.0625 0.6875 4 2 C4.75 4.125 4.75 4.125 5 6 C4.01 5.67 3.02 5.34 2 5 C2 4.01 2 3.02 2 2 C0.68 2.33 -0.64 2.66 -2 3 C-2 2.34 -2 1.68 -2 1 C-1.34 0.67 -0.68 0.34 0 0 Z " fill="#1D6A7D" transform="translate(62,57)"/>
</svg>
